<svg id="Layer_1" data-name="Layer 1" xmlns="http://www.w3.org/2000/svg" viewBox="0 0 1080.1 980.88"><defs><style>.cls-1{fill:#00b32c;}</style></defs><path class="cls-1" d="M434.19,154.81C339.83,60.49,155.18,49.56,24.47,49.56A24.53,24.53,0,0,0,0,74.08C0,204.78,10.84,389.43,105.2,483.79c39.82,39.83,100.88,57.63,161.4,57.63,65.77,0,131-21,167.59-57.67C504.47,413.46,517.37,237.94,434.19,154.81ZM399.51,449.12c-52.47,52.43-198.18,61.4-259.59,0C63.76,373,50.56,218.22,49.14,98.75c119.47,1.42,274.21,14.61,350.37,90.78C460.92,250.93,451.94,396.69,399.51,449.12Z" transform="translate(0.05 -49.56)"/><path class="cls-1" d="M1055.53,146.57c-130.7,0-315.36,10.88-409.72,105.24-83.18,83.13-70.28,258.66,0,328.94,36.64,36.59,101.77,57.63,167.54,57.63,60.52,0,121.53-17.75,161.45-57.57,94.31-94.37,105.25-279,105.25-409.72A24.53,24.53,0,0,0,1055.53,146.57ZM940,546.08c-61.4,61.4-207.16,52.43-259.59,0s-61.4-198.19,0-259.59c76.17-76.17,230.9-89.36,350.37-90.78C1029.39,315.23,1016.2,470,940,546.08Z" transform="translate(0.05 -49.56)"/><path class="cls-1" d="M878.43,358.83c-5.79-12.31-22.36-16.53-34.58-10.84C655.77,436.42,563.37,590.61,521.39,749.12c-51.94-337-202.16-439.78-265.87-483.38-7.94-5.44-14.12-9.41-17.56-12.8a24.52,24.52,0,1,0-34.67,34.68c4.85,4.81,13.24,10.84,24.57,18.59,71.8,49.09,262.53,179.6,262.53,699.71a24.53,24.53,0,0,0,49.05.05c0-210.15,56.45-487.2,325.31-613.54,0-.05,4-1.92,4-1.92C880.93,384.73,884.22,371.09,878.43,358.83Z" transform="translate(0.05 -49.56)"/></svg>